{"title":"Resident Evil Retribution (2012) BRRip 1080p [DD 5.1 Original Mu","uid":9837424,"size":2494266967,"categoryP":"video","categoryS":"hd___movies","magnet":"?xt=urn:btih:5de59e167100d789e0769da0a6d7a995cca3dd3f&amp;dn=Resident+Evil+Retribution+%282012%29+BRRip+1080p+%5BDD+5.1+Original+Mu&amp;tr=udp%3A%2F%2Ftracker.openbittorrent.com%3A80&amp;tr=udp%3A%2F%2Fopen.demonii.com%3A1337&amp;tr=udp%3A%2F%2Ftracker.coppersurfer.tk%3A6969&amp;tr=udp%3A%2F%2Fexodus.desync.com%3A6969","seeders":0,"leechers":3,"uploader":"SaNRiM","files":-1,"time":1395937185,"description":"Storyline\n\nAlice awakes at home with her daughter Becky and her husband. But soon she realizes that she is actually in an Umbrella Corporation's underground facility. Out of the blue, the computer security system shuts-down and Alice flees to the central control room of the facility. She meets Ada Wong, who works with Albert Wesker, and she learns that a five-man team has been sent by Wesker to rescue them. However, the Red Queen sends Jill Valentine and Rain to hunt them down.\n\n\nTorrent Info\n\nGeneral\n\nUnique ID : 186903531999255936479452636591785039935 (0x8C9C4F97122CEF4F9C47095AA5CCD83F)\nComplete name : Resident Evil Retribution (2012) BRRip 1080p ~SaNRiM~.mkv\nFormat : Matroska\nFormat version : Version 4 / Version 2\nFile size : 2.31 GiB\nDuration : 1h 35mn\nOverall bit rate : 3 460 Kbps\nEncoded date : UTC 2014-03-27 02:55:35\nWriting library : libebml v1.3.0 + libmatroska v1.4.1\n\n\nVideo\n\nID : 1\nFormat : AVC\nFormat/Info : Advanced Video Codec\nFormat profile : &lt;a class=&quot;__cf_email__&quot; href=&quot;/cdn-cgi/l/email-protection&quot; data-cfemail=&quot;98d0f1fff0d8d4acb6a8&quot;&gt;[email&amp;#160;protected]&lt;/a&gt;&lt;script cf-hash='f9e31' type=&quot;text/javascript&quot;&gt;\n/* &lt;![CDATA[ */!function(){try{var t=&quot;currentScript&quot;in document?document.currentScript:function(){for(var t=document.getElementsByTagName(&quot;script&quot;),e=t.length;e--;)if(t[e].getAttribute(&quot;cf-hash&quot;))return t[e]}();if(t&amp;&amp;t.previousSibling){var e,r,n,i,c=t.previousSibling,a=c.getAttribute(&quot;data-cfemail&quot;);if(a){for(e=&quot;&quot;,r=parseInt(a.substr(0,2),16),n=2;a.length-n;n+=2)i=parseInt(a.substr(n,2),16)^r,e+=String.fromCharCode(i);e=document.createTextNode(e),c.parentNode.replaceChild(e,c)}}}catch(u){}}();/* ]]&gt; */&lt;/script&gt;\nFormat settings, CABAC : Yes\nFormat settings, ReFrames : 4 frames\nCodec ID : V_MPEG4/ISO/AVC\nDuration : 1h 35mn\nBit rate : 1 663 Kbps\nWidth : 1 920 pixels\nHeight : 800 pixels\nDisplay aspect ratio : 2.40:1\nFrame rate mode : Constant\nFrame rate : 23.976 fps\nColor space : YUV\nChroma subsampling : 4:2:0\nBit depth : 8 bits\nScan type : Progressive\nBits/(Pixel*Frame) : 0.045\nStream size : 1.07 GiB (46%)\nTitle : ~SaNRiM~\nWriting library : x264 core 129 r2230 1cffe9f\nLanguage : English\nDefault : Yes\nForced : No\n\n\nAudio #1\n\nID : 2\nFormat : AC-3\nFormat/Info : Audio Coding 3\nMode extension : CM (complete main)\nFormat settings, Endianness : Big\nCodec ID : A_AC3\nDuration : 1h 35mn\nBit rate mode : Constant\nBit rate : 448 Kbps\nChannel(s) : 6 channels\nChannel positions : Front: L C R, Side: L R, LFE\nSampling rate : 48.0 KHz\nBit depth : 16 bits\nCompression mode : Lossy\nStream size : 306 MiB (13%)\nTitle : ~SaNRiM~\nLanguage : Hindi\nDefault : Yes\nForced : No\n\n\nAudio #2\n\nID : 3\nFormat : AC-3\nFormat/Info : Audio Coding 3\nMode extension : CM (complete main)\nFormat settings, Endianness : Big\nCodec ID : A_AC3\nDuration : 1h 35mn\nBit rate mode : Constant\nBit rate : 448 Kbps\nChannel(s) : 6 channels\nChannel positions : Front: L C R, Side: L R, LFE\nSampling rate : 48.0 KHz\nBit depth : 16 bits\nCompression mode : Lossy\nStream size : 306 MiB (13%)\nTitle : ~SaNRiM~\nLanguage : Tamil\nDefault : No\nForced : No\n\n\nAudio #3\n\nID : 4\nFormat : AC-3\nFormat/Info : Audio Coding 3\nMode extension : CM (complete main)\nFormat settings, Endianness : Big\nCodec ID : A_AC3\nDuration : 1h 35mn\nBit rate mode : Constant\nBit rate : 448 Kbps\nChannel(s) : 6 channels\nChannel positions : Front: L C R, Side: L R, LFE\nSampling rate : 48.0 KHz\nBit depth : 16 bits\nCompression mode : Lossy\nStream size : 306 MiB (13%)\nTitle : ~SaNRiM~\nLanguage : Telugu\nDefault : No\nForced : No\n\n\nAudio #4\n\nID : 5\nFormat : AC-3\nFormat/Info : Audio Coding 3\nMode extension : CM (complete main)\nFormat settings, Endianness : Big\nCodec ID : A_AC3\nDuration : 1h 35mn\nBit rate mode : Constant\nBit rate : 448 Kbps\nChannel(s) : 6 channels\nChannel positions : Front: L C R, Side: L R, LFE\nSampling rate : 48.0 KHz\nBit depth : 16 bits\nCompression mode : Lossy\nStream size : 306 MiB (13%)\nTitle : ~SaNRiM~\nLanguage : English\nDefault : No\nForced : No\n\n\nText\n\nID : 6\nFormat : PGS\nMuxing mode : zlib\nCodec ID : S_HDMV/PGS\nCodec ID/Info : The same subtitle format used on BDs/HD-DVDs\nTitle : ~SaNRiM~\nLanguage : English\nDefault : Yes\nForced : No\n\n\n\nScreens\n &lt;a href=&quot;\nhttp://someimage.com/MjpieHm&quot; rel=&quot;nofollow&quot; target=&quot;_NEW&quot;&gt;\nhttp://someimage.com/MjpieHm&lt;/a&gt; &lt;a href=&quot;\nhttp://someimage.com/tgDemIZ&quot; rel=&quot;nofollow&quot; target=&quot;_NEW&quot;&gt;\nhttp://someimage.com/tgDemIZ&lt;/a&gt; &lt;a href=&quot;\nhttp://someimage.com/siJTDF7&quot; rel=&quot;nofollow&quot; target=&quot;_NEW&quot;&gt;\nhttp://someimage.com/siJTDF7&lt;/a&gt; &lt;a href=&quot;\nhttp://someimage.com/0OidDFp&quot; rel=&quot;nofollow&quot; target=&quot;_NEW&quot;&gt;\nhttp://someimage.com/0OidDFp&lt;/a&gt; &lt;a href=&quot;\nhttp://someimage.com/CKwKfnN&quot; rel=&quot;nofollow&quot; target=&quot;_NEW&quot;&gt;\nhttp://someimage.com/CKwKfnN&lt;/a&gt; &lt;a href=&quot;\nhttp://someimage.com/aQ1mqwr&quot; rel=&quot;nofollow&quot; target=&quot;_NEW&quot;&gt;\nhttp://someimage.com/aQ1mqwr&lt;/a&gt; &lt;a href=&quot;\nhttp://someimage.com/l8GjoO4&quot; rel=&quot;nofollow&quot; target=&quot;_NEW&quot;&gt;\nhttp://someimage.com/l8GjoO4&lt;/a&gt; &lt;a href=&quot;\nhttp://someimage.com/U3vXbnw&quot; rel=&quot;nofollow&quot; target=&quot;_NEW&quot;&gt;\nhttp://someimage.com/U3vXbnw&lt;/a&gt; &lt;a href=&quot;\nhttp://someimage.com/0AKUK77&quot; rel=&quot;nofollow&quot; target=&quot;_NEW&quot;&gt;\nhttp://someimage.com/0AKUK77&lt;/a&gt; &lt;a href=&quot;\nhttp://someimage.com/FNT7jl5&quot; rel=&quot;nofollow&quot; target=&quot;_NEW&quot;&gt;\nhttp://someimage.com/FNT7jl5&lt;/a&gt; &lt;a href=&quot;\nhttp://someimage.com/X2EQ9Wl&quot; rel=&quot;nofollow&quot; target=&quot;_NEW&quot;&gt;\nhttp://someimage.com/X2EQ9Wl&lt;/a&gt; &lt;a href=&quot;\nhttp://someimage.com/0gkzO9j&quot; rel=&quot;nofollow&quot; target=&quot;_NEW&quot;&gt;\nhttp://someimage.com/0gkzO9j&lt;/a&gt; &lt;a href=&quot;\nhttp://someimage.com/Tkk7Vbt&quot; rel=&quot;nofollow&quot; target=&quot;_NEW&quot;&gt;\nhttp://someimage.com/Tkk7Vbt&lt;/a&gt; &lt;a href=&quot;\nhttp://someimage.com/dRx9P9y&quot; rel=&quot;nofollow&quot; target=&quot;_NEW&quot;&gt;\nhttp://someimage.com/dRx9P9y&lt;/a&gt; &lt;a href=&quot;\nhttp://someimage.com/stPAW2n&quot; rel=&quot;nofollow&quot; target=&quot;_NEW&quot;&gt;\nhttp://someimage.com/stPAW2n&lt;/a&gt; &lt;a href=&quot;\nhttp://someimage.com/5T5GSxW&quot; rel=&quot;nofollow&quot; target=&quot;_NEW&quot;&gt;\nhttp://someimage.com/5T5GSxW&lt;/a&gt; &lt;a href=&quot;\nhttp://someimage.com/ncv7Pal&quot; rel=&quot;nofollow&quot; target=&quot;_NEW&quot;&gt;\nhttp://someimage.com/ncv7Pal&lt;/a&gt; &lt;a href=&quot;\nhttp://someimage.com/ESxuMS1&quot; rel=&quot;nofollow&quot; target=&quot;_NEW&quot;&gt;\nhttp://someimage.com/ESxuMS1&lt;/a&gt; &lt;a href=&quot;\nhttp://someimage.com/bggh2EL&quot; rel=&quot;nofollow&quot; target=&quot;_NEW&quot;&gt;\nhttp://someimage.com/bggh2EL&lt;/a&gt; &lt;a href=&quot;\nhttp://someimage.com/3ikLCsD&quot; rel=&quot;nofollow&quot; target=&quot;_NEW&quot;&gt;\nhttp://someimage.com/3ikLCsD&lt;/a&gt; &lt;a href=&quot;\nhttp://someimage.com/mfDxL8s&quot; rel=&quot;nofollow&quot; target=&quot;_NEW&quot;&gt;\nhttp://someimage.com/mfDxL8s&lt;/a&gt; &lt;a href=&quot;\nhttp://someimage.com/Uj6rmdf&quot; rel=&quot;nofollow&quot; target=&quot;_NEW&quot;&gt;\nhttp://someimage.com/Uj6rmdf&lt;/a&gt; &lt;a href=&quot;\nhttp://someimage.com/PT5YjHT&quot; rel=&quot;nofollow&quot; target=&quot;_NEW&quot;&gt;\nhttp://someimage.com/PT5YjHT&lt;/a&gt;\n\n\n\n                  If you like my work please comment\n                          Any request? Just PM me\n                       Please seed long after download\n                         Thank you &amp; enjoy the best\n                                 ~SaNRiM~","torrent":{"xt":"urn:btih:5de59e167100d789e0769da0a6d7a995cca3dd3f","amp;dn":"Resident+Evil+Retribution+%282012%29+BRRip+1080p+%5BDD+5.1+Original+Mu","amp;tr":["udp%3A%2F%2Ftracker.openbittorrent.com%3A80","udp%3A%2F%2Fopen.demonii.com%3A1337","udp%3A%2F%2Ftracker.coppersurfer.tk%3A6969","udp%3A%2F%2Fexodus.desync.com%3A6969"],"infoHash":"5de59e167100d789e0769da0a6d7a995cca3dd3f","infoHashBuffer":{"type":"Buffer","data":[93,229,158,22,113,0,215,137,224,118,157,160,166,215,169,149,204,163,221,63]},"announce":[],"urlList":[]}}